<?xml version="1.0" encoding="UTF-8" standalone="no"?><!DOCTYPE svg PUBLIC "-//W3C//DTD SVG 1.1//EN" "http://www.w3.org/Graphics/SVG/1.1/DTD/svg11.dtd"><!-- Generated by graphviz version 2.40.1 (20161225.0304)
 --><!-- Title: A Pages: 1 --><svg xmlns="http://www.w3.org/2000/svg" xmlns:xlink="http://www.w3.org/1999/xlink" width="519pt" height="381pt" viewBox="0.00 0.00 519.00 381.20">
<g id="graph0" class="graph" transform="scale(1 1) rotate(0) translate(4 377.2)">
<title>A</title>
<polygon fill="#ffffff" stroke="transparent" points="-4,4 -4,-377.2 515,-377.2 515,4 -4,4"/>
<g id="clust1" class="cluster">
<title>cluster_queue</title>
<polygon fill="none" stroke="#000000" points="68,-192.6 68,-269.4 159,-269.4 159,-192.6 68,-192.6"/>
<text text-anchor="middle" x="113.5" y="-252.8" font-family="Times,serif" font-size="14.00" fill="#000000">queue_thread</text>
</g>
<g id="clust2" class="cluster">
<title>cluster_driver</title>
<polygon fill="none" stroke="#000000" points="286,-288.4 286,-365.2 406,-365.2 406,-288.4 286,-288.4"/>
<text text-anchor="middle" x="346" y="-348.6" font-family="Times,serif" font-size="14.00" fill="#000000">driver </text>
</g>
<g id="clust3" class="cluster">
<title>cluster_winsys</title>
<polygon fill="none" stroke="#000000" points="307,-192.6 307,-269.4 501,-269.4 501,-192.6 307,-192.6"/>
<text text-anchor="middle" x="404" y="-252.8" font-family="Times,serif" font-size="14.00" fill="#000000">winsys</text>
</g>
<g id="clust4" class="cluster">
<title>cluster_siroywegpu_winsys</title>
<polygon fill="none" stroke="#000000" points="8,-81 8,-157.8 503,-157.8 503,-81 8,-81"/>
<text text-anchor="middle" x="255.5" y="-141.2" font-family="Times,serif" font-size="14.00" fill="#000000">siroywegpu_winsys</text>
</g>
<g id="clust5" class="cluster">
<title>cluster_drm</title>
<polygon fill="none" stroke="#000000" points="62,-8 62,-60 132,-60 132,-8 62,-8"/>
</g>
<!-- job -->
<g id="node1" class="node">
<title>job</title>
<polygon fill="none" stroke="#000000" points="140,-236.6 86,-236.6 86,-200.6 140,-200.6 140,-236.6"/>
<text text-anchor="middle" x="113" y="-214.4" font-family="Times,serif" font-size="14.00" fill="#000000">job</text>
</g>
<!-- siroywegpu_cs_submit_ib -->
<g id="node7" class="node">
<title>siroywegpu_cs_submit_ib</title>
<polygon fill="none" stroke="#000000" points="178.4832,-125 15.5168,-125 15.5168,-89 178.4832,-89 178.4832,-125"/>
<text text-anchor="middle" x="97" y="-102.8" font-family="Times,serif" font-size="14.00" fill="#000000">siroywegpu_cs_submit_ib</text>
</g>
<!-- job&#45;&gt;siroywegpu_cs_submit_ib -->
<g id="edge4" class="edge">
<title>job-&gt;siroywegpu_cs_submit_ib</title>
<path fill="none" stroke="#000000" d="M110.3579,-200.1715C107.8183,-182.4577 103.9455,-155.4448 101.0227,-135.0581"/>
<polygon fill="#000000" stroke="#000000" points="104.4768,-134.4876 99.5929,-125.0856 97.5476,-135.4811 104.4768,-134.4876"/>
</g>
<!-- si_flush_gfx_cs -->
<g id="node2" class="node">
<title>si_flush_gfx_cs</title>
<polygon fill="none" stroke="#000000" points="398.1514,-332.4 293.8486,-332.4 293.8486,-296.4 398.1514,-296.4 398.1514,-332.4"/>
<text text-anchor="middle" x="346" y="-310.2" font-family="Times,serif" font-size="14.00" fill="#000000">si_flush_gfx_cs</text>
</g>
<!-- cs_flush -->
<g id="node4" class="node">
<title>cs_flush</title>
<polygon fill="none" stroke="#000000" points="377.1559,-236.6 314.8441,-236.6 314.8441,-200.6 377.1559,-200.6 377.1559,-236.6"/>
<text text-anchor="middle" x="346" y="-214.4" font-family="Times,serif" font-size="14.00" fill="#000000">cs_flush</text>
</g>
<!-- si_flush_gfx_cs&#45;&gt;cs_flush -->
<g id="edge1" class="edge">
<title>si_flush_gfx_cs-&gt;cs_flush</title>
<path fill="none" stroke="#000000" d="M346,-296.3808C346,-282.5527 346,-263.193 346,-247.2477"/>
<polygon fill="#000000" stroke="#000000" points="349.5001,-246.8641 346,-236.8642 342.5001,-246.8642 349.5001,-246.8641"/>
</g>
<!-- context_create -->
<g id="node3" class="node">
<title>context_create</title>
<polygon fill="none" stroke="#000000" points="492.6207,-236.6 395.3793,-236.6 395.3793,-200.6 492.6207,-200.6 492.6207,-236.6"/>
<text text-anchor="middle" x="444" y="-214.4" font-family="Times,serif" font-size="14.00" fill="#000000">context_create</text>
</g>
<!-- siroywegpu_cs_flush -->
<g id="node6" class="node">
<title>siroywegpu_cs_flush</title>
<polygon fill="none" stroke="#000000" points="331.472,-125 196.528,-125 196.528,-89 331.472,-89 331.472,-125"/>
<text text-anchor="middle" x="264" y="-102.8" font-family="Times,serif" font-size="14.00" fill="#000000">siroywegpu_cs_flush</text>
</g>
<!-- cs_flush&#45;&gt;siroywegpu_cs_flush -->
<g id="edge2" class="edge">
<title>cs_flush-&gt;siroywegpu_cs_flush</title>
<path fill="none" stroke="#000000" d="M343.912,-200.4169C342.0413,-189.7075 338.5331,-176.2551 332,-165.8 323.8019,-152.6803 311.7573,-140.9048 300.0741,-131.3996"/>
<polygon fill="#000000" stroke="#000000" points="302.1374,-128.5704 292.0953,-125.1932 297.8396,-134.0956 302.1374,-128.5704"/>
</g>
<!-- siroywegpu_ctx_create -->
<g id="node5" class="node">
<title>siroywegpu_ctx_create</title>
<polygon fill="none" stroke="#000000" points="494.8319,-125 349.1681,-125 349.1681,-89 494.8319,-89 494.8319,-125"/>
<text text-anchor="middle" x="422" y="-102.8" font-family="Times,serif" font-size="14.00" fill="#000000">siroywegpu_ctx_create</text>
</g>
<!-- siroywegpu_cs_flush&#45;&gt;job -->
<g id="edge3" class="edge">
<title>siroywegpu_cs_flush-&gt;job</title>
<path fill="none" stroke="#000000" d="M242.2254,-125.2375C227.5535,-136.5063 207.2478,-150.2188 187,-157.8 161.9524,-167.1783 147.4757,-148.1778 127.3562,-165.8 120.2432,-172.0301 116.4911,-181.3979 114.5618,-190.5215"/>
<polygon fill="#000000" stroke="#000000" points="111.0812,-190.133 113.076,-200.5383 118.0055,-191.1601 111.0812,-190.133"/>
<text text-anchor="middle" x="227.3219" y="-170" font-family="Times,serif" font-size="14.00" fill="#000000">加入任务siroywegpu_cs_submit_ib</text>
</g>
<!-- drm -->
<g id="node8" class="node">
<title>drm</title>
<polygon fill="none" stroke="#000000" points="124,-52 70,-52 70,-16 124,-16 124,-52"/>
<text text-anchor="middle" x="97" y="-29.8" font-family="Times,serif" font-size="14.00" fill="#000000">drm</text>
</g>
<!-- siroywegpu_cs_submit_ib&#45;&gt;drm -->
<g id="edge5" class="edge">
<title>siroywegpu_cs_submit_ib-&gt;drm</title>
<path fill="none" stroke="#000000" d="M97,-88.9551C97,-80.8828 97,-71.1764 97,-62.1817"/>
<polygon fill="#000000" stroke="#000000" points="100.5001,-62.0903 97,-52.0904 93.5001,-62.0904 100.5001,-62.0903"/>
</g>
</g>
</svg>