<?xml version="1.0" encoding="UTF-8" standalone="no"?><!DOCTYPE svg PUBLIC "-//W3C//DTD SVG 1.1//EN" "http://www.w3.org/Graphics/SVG/1.1/DTD/svg11.dtd"><!-- Generated by graphviz version 2.40.1 (20161225.0304)
 --><!-- Title: G Pages: 1 --><svg xmlns="http://www.w3.org/2000/svg" xmlns:xlink="http://www.w3.org/1999/xlink" width="969pt" height="310pt" viewBox="0.00 0.00 969.23 310.40">
<g id="graph0" class="graph" transform="scale(1 1) rotate(0) translate(4 306.4)">
<title>G</title>
<polygon fill="#ffffff" stroke="transparent" points="-4,4 -4,-306.4 965.2284,-306.4 965.2284,4 -4,4"/>
<!-- si_upload_vertex_buffer_descriptors -->
<g id="node1" class="node">
<title>si_upload_vertex_buffer_descriptors</title>
<polygon fill="#c0c0c0" stroke="#000000" points="504.6134,-302.4 282.5374,-302.4 282.5374,-266.4 504.6134,-266.4 504.6134,-302.4"/>
<text text-anchor="middle" x="393.5754" y="-280.2" font-family="Times,serif" font-size="14.00" fill="#000000">si_upload_vertex_buffer_descriptors</text>
</g>
<!-- si_emit_all_states -->
<g id="node2" class="node">
<title>si_emit_all_states</title>
<polygon fill="#c0c0c0" stroke="#000000" points="706.8929,-302.4 590.258,-302.4 590.258,-266.4 706.8929,-266.4 706.8929,-302.4"/>
<text text-anchor="middle" x="648.5754" y="-280.2" font-family="Times,serif" font-size="14.00" fill="#000000">si_emit_all_states</text>
</g>
<!-- si_upload_vertex_buffer_descriptors&#45;&gt;si_emit_all_states -->
<g id="edge1" class="edge">
<title>si_upload_vertex_buffer_descriptors-&gt;si_emit_all_states</title>
<path fill="none" stroke="#ff0000" stroke-width="8" d="M504.6399,-284.4C529.8715,-284.4 555.1031,-284.4 580.3348,-284.4"/>
<polygon fill="#ff0000" stroke="#ff0000" stroke-width="8" points="580.3828,-291.4001 590.3827,-284.4 580.3827,-277.4001 580.3828,-291.4001"/>
</g>
<!-- u_upload_alloc -->
<g id="node3" class="node">
<title>u_upload_alloc</title>
<ellipse fill="none" stroke="#000000" cx="70.5754" cy="-195.6" rx="70.6509" ry="18"/>
<text text-anchor="middle" x="70.5754" y="-191.4" font-family="Times,serif" font-size="14.00" fill="#000000">u_upload_alloc</text>
</g>
<!-- si_upload_vertex_buffer_descriptors&#45;&gt;u_upload_alloc -->
<g id="edge2" class="edge">
<title>si_upload_vertex_buffer_descriptors-&gt;u_upload_alloc</title>
<path fill="none" stroke="#000000" d="M310.3903,-266.3224C287.0433,-260.9145 261.7037,-254.7293 238.507,-248.4 199.6295,-237.7921 156.249,-224.1039 123.3185,-213.323"/>
<polygon fill="#000000" stroke="#000000" points="124.0437,-209.8771 113.4508,-210.0771 121.8564,-216.5266 124.0437,-209.8771"/>
<text text-anchor="middle" x="314.1096" y="-235.8" font-family="Times,serif" font-size="14.00" fill="#000000">获取vb_descriptors_buffer</text>
</g>
<!-- 将vbo地址以Shader Buffer Resource Descriptor 存入map  -->
<g id="node5" class="node">
<title>将vbo地址以Shader Buffer Resource Descriptor 存入map </title>
<ellipse fill="none" stroke="#000000" cx="393.5754" cy="-195.6" rx="234.3303" ry="18"/>
<text text-anchor="middle" x="393.5754" y="-191.4" font-family="Times,serif" font-size="14.00" fill="#000000">将vbo地址以Shader Buffer Resource Descriptor 存入map </text>
</g>
<!-- si_upload_vertex_buffer_descriptors&#45;&gt;将vbo地址以Shader Buffer Resource Descriptor 存入map  -->
<g id="edge4" class="edge">
<title>si_upload_vertex_buffer_descriptors-&gt;将vbo地址以Shader Buffer Resource Descriptor 存入map </title>
<path fill="none" stroke="#000000" d="M393.5754,-266.0006C393.5754,-253.8949 393.5754,-237.8076 393.5754,-224.0674"/>
<polygon fill="#000000" stroke="#000000" points="397.0755,-223.672 393.5754,-213.672 390.0755,-223.6721 397.0755,-223.672"/>
</g>
<!-- atoms.emit -->
<g id="node6" class="node">
<title>atoms.emit</title>
<ellipse fill="none" stroke="#000000" cx="699.5754" cy="-195.6" rx="53.8676" ry="18"/>
<text text-anchor="middle" x="699.5754" y="-191.4" font-family="Times,serif" font-size="14.00" fill="#000000">atoms.emit</text>
</g>
<!-- si_emit_all_states&#45;&gt;atoms.emit -->
<g id="edge5" class="edge">
<title>si_emit_all_states-&gt;atoms.emit</title>
<path fill="none" stroke="#000000" d="M659.1427,-266.0006C666.4185,-253.3321 676.1986,-236.3033 684.3174,-222.1669"/>
<polygon fill="#000000" stroke="#000000" points="687.4245,-223.7846 689.3698,-213.3699 681.3543,-220.2984 687.4245,-223.7846"/>
<text text-anchor="middle" x="712.076" y="-235.8" font-family="Times,serif" font-size="14.00" fill="#000000">发射原子状态</text>
</g>
<!-- winsys -->
<g id="node4" class="node">
<title>winsys</title>
<ellipse fill="none" stroke="#000000" cx="70.5754" cy="-106.8" rx="37.7198" ry="18"/>
<text text-anchor="middle" x="70.5754" y="-102.6" font-family="Times,serif" font-size="14.00" fill="#000000">winsys</text>
</g>
<!-- u_upload_alloc&#45;&gt;winsys -->
<g id="edge3" class="edge">
<title>u_upload_alloc-&gt;winsys</title>
<path fill="none" stroke="#000000" d="M70.5754,-177.2006C70.5754,-165.0949 70.5754,-149.0076 70.5754,-135.2674"/>
<polygon fill="#000000" stroke="#000000" points="74.0755,-134.872 70.5754,-124.872 67.0755,-134.8721 74.0755,-134.872"/>
<text text-anchor="middle" x="129.6036" y="-147" font-family="Times,serif" font-size="14.00" fill="#000000">获取bo地址和map地址</text>
</g>
<!-- si_emit_graphics_shader_pointers -->
<g id="node7" class="node">
<title>si_emit_graphics_shader_pointers</title>
<ellipse fill="none" stroke="#000000" cx="699.5754" cy="-106.8" rx="142.9587" ry="18"/>
<text text-anchor="middle" x="699.5754" y="-102.6" font-family="Times,serif" font-size="14.00" fill="#000000">si_emit_graphics_shader_pointers</text>
</g>
<!-- atoms.emit&#45;&gt;si_emit_graphics_shader_pointers -->
<g id="edge6" class="edge">
<title>atoms.emit-&gt;si_emit_graphics_shader_pointers</title>
<path fill="none" stroke="#000000" d="M699.5754,-177.2006C699.5754,-165.0949 699.5754,-149.0076 699.5754,-135.2674"/>
<polygon fill="#000000" stroke="#000000" points="703.0755,-134.872 699.5754,-124.872 696.0755,-134.8721 703.0755,-134.872"/>
</g>
<!-- SPI_SHADER_USER_DATA_VS_8 -->
<g id="node8" class="node">
<title>SPI_SHADER_USER_DATA_VS_8</title>
<ellipse fill="none" stroke="#000000" cx="699.5754" cy="-18" rx="156.3263" ry="18"/>
<text text-anchor="middle" x="699.5754" y="-13.8" font-family="Times,serif" font-size="14.00" fill="#000000">SPI_SHADER_USER_DATA_VS_8</text>
</g>
<!-- si_emit_graphics_shader_pointers&#45;&gt;SPI_SHADER_USER_DATA_VS_8 -->
<g id="edge7" class="edge">
<title>si_emit_graphics_shader_pointers-&gt;SPI_SHADER_USER_DATA_VS_8</title>
<path fill="none" stroke="#000000" d="M699.5754,-88.4006C699.5754,-76.2949 699.5754,-60.2076 699.5754,-46.4674"/>
<polygon fill="#000000" stroke="#000000" points="703.0755,-46.072 699.5754,-36.072 696.0755,-46.0721 703.0755,-46.072"/>
<text text-anchor="middle" x="830.4019" y="-58.2" font-family="Times,serif" font-size="14.00" fill="#000000">未下发vbd地址,将vb_descriptors_buffer地址存入</text>
</g>
</g>
</svg>